<svg 
 xmlns="http://www.w3.org/2000/svg"
 xmlns:xlink="http://www.w3.org/1999/xlink"
 width="149px" height="114px">
<defs>
<filter filterUnits="userSpaceOnUse" id="Filter_0" x="81px" y="48px" width="41px" height="23px"  >
    <feOffset in="SourceAlpha" dx="0" dy="1" />
    <feGaussianBlur result="blurOut" stdDeviation="1.414" />
    <feFlood flood-color="rgb(0, 0, 0)" result="floodOut" />
    <feComposite operator="atop" in="floodOut" in2="blurOut" />
    <feComponentTransfer><feFuncA type="linear" slope="0.15"/></feComponentTransfer>
    <feMerge>
    <feMergeNode/>
    <feMergeNode in="SourceGraphic"/>
  </feMerge>
</filter>
<filter filterUnits="userSpaceOnUse" id="Filter_1" x="85px" y="52px" width="15px" height="15px"  >
    <feOffset in="SourceAlpha" dx="0" dy="1" />
    <feGaussianBlur result="blurOut" stdDeviation="1" />
    <feFlood flood-color="rgb(0, 0, 0)" result="floodOut" />
    <feComposite operator="atop" in="floodOut" in2="blurOut" />
    <feComponentTransfer><feFuncA type="linear" slope="0.35"/></feComponentTransfer>
    <feMerge>
    <feMergeNode/>
    <feMergeNode in="SourceGraphic"/>
  </feMerge>
</filter>

</defs>
<path fill-rule="evenodd"  stroke-width="4px" stroke="rgb(144, 228, 88)" fill="rgb(158, 251, 95)"
 d="M16.817,23.918 L77.915,7.547 C79.715,7.065 81.608,8.294 82.143,10.291 L91.593,45.558 C92.128,47.556 91.103,49.566 89.303,50.048 L28.205,66.419 C26.406,66.901 24.513,65.673 23.978,63.675 L14.528,28.409 C13.993,26.411 15.018,24.401 16.817,23.918 Z"/>
<path fill-rule="evenodd"  stroke-width="4px" stroke="rgb(144, 228, 88)" fill="rgb(158, 251, 95)"
 d="M32.705,26.979 L93.802,10.608 C95.602,10.126 97.495,11.355 98.030,13.352 L107.480,48.619 C108.015,50.617 106.990,52.627 105.190,53.109 L44.093,69.480 C42.293,69.962 40.400,68.734 39.865,66.736 L30.415,31.469 C29.880,29.472 30.905,27.461 32.705,26.979 Z"/>
<path fill-rule="evenodd"  stroke-width="4px" stroke="rgb(239, 229, 221)" fill="rgb(255, 255, 255)"
 d="M24.000,20.000 L114.000,20.000 C116.209,20.000 118.000,21.791 118.000,24.000 L118.000,92.000 C118.000,94.209 116.209,96.000 114.000,96.000 L24.000,96.000 C15.163,96.000 8.000,88.837 8.000,80.000 L8.000,36.000 C8.000,27.163 15.163,20.000 24.000,20.000 Z"/>
<g filter="url(#Filter_0)">
<path fill-rule="evenodd"  fill="rgb(239, 229, 221)"
 d="M92.000,48.000 L118.000,48.000 C119.105,48.000 120.000,48.895 120.000,50.000 L120.000,66.000 C120.000,67.104 119.105,68.000 118.000,68.000 L92.000,68.000 C86.477,68.000 82.000,63.523 82.000,58.000 C82.000,52.477 86.477,48.000 92.000,48.000 Z"/>
</g>
<g filter="url(#Filter_1)">
<path fill-rule="evenodd"  fill="rgb(138, 138, 138)"
 d="M92.000,52.000 C95.314,52.000 98.000,54.686 98.000,58.000 C98.000,61.313 95.314,64.000 92.000,64.000 C88.686,64.000 86.000,61.313 86.000,58.000 C86.000,54.686 88.686,52.000 92.000,52.000 Z"/>
</g>
<path fill-rule="evenodd"  fill="rgb(252, 216, 0)"
 d="M62.000,78.000 L108.000,78.000 C109.104,78.000 110.000,78.895 110.000,80.000 L110.000,86.000 C110.000,87.104 109.104,88.000 108.000,88.000 L62.000,88.000 C60.895,88.000 60.000,87.104 60.000,86.000 L60.000,80.000 C60.000,78.895 60.895,78.000 62.000,78.000 Z"/>
<path fill-rule="evenodd"  fill="rgb(255, 255, 255)"
 d="M130.000,81.000 L149.000,81.000 L149.000,96.000 L130.000,96.000 C126.686,96.000 124.000,93.313 124.000,90.000 L124.000,87.000 C124.000,83.686 126.686,81.000 130.000,81.000 Z"/>
<path fill-rule="evenodd"  fill="rgb(40, 22, 15)"
 d="M37.873,82.811 L26.987,94.101 C26.525,94.580 25.970,94.894 25.385,95.078 C23.847,96.338 21.618,96.249 20.199,94.777 L9.116,83.283 C7.585,81.697 7.585,79.124 9.116,77.537 C10.646,75.950 13.127,75.950 14.657,77.537 L18.986,82.026 L18.986,71.328 C18.986,68.934 20.780,66.993 22.993,66.993 C25.206,66.993 27.000,68.934 27.000,71.328 L27.000,82.797 L32.430,77.166 C33.933,75.608 36.370,75.608 37.873,77.166 C39.376,78.725 39.376,81.253 37.873,82.811 Z"/>
<path fill-rule="evenodd"  fill-opacity="0.102" fill="rgb(45, 97, 11)"
 d="M24.000,74.000 C35.046,74.000 44.000,82.954 44.000,94.000 C44.000,105.046 35.046,114.000 24.000,114.000 C12.954,114.000 4.000,105.046 4.000,94.000 C4.000,82.954 12.954,74.000 24.000,74.000 Z"/>
<path fill-rule="evenodd"  fill-opacity="0.102" fill="rgb(45, 97, 11)"
 d="M24.000,81.000 C31.180,81.000 37.000,86.820 37.000,94.000 C37.000,101.179 31.180,107.000 24.000,107.000 C16.820,107.000 11.000,101.179 11.000,94.000 C11.000,86.820 16.820,81.000 24.000,81.000 Z"/>
<path fill-rule="evenodd"  fill-opacity="0.102" fill="rgb(45, 97, 11)"
 d="M24.000,88.000 C27.314,88.000 30.000,90.686 30.000,94.000 C30.000,97.314 27.314,100.000 24.000,100.000 C20.686,100.000 18.000,97.314 18.000,94.000 C18.000,90.686 20.686,88.000 24.000,88.000 Z"/>
</svg>