<svg 
 xmlns="http://www.w3.org/2000/svg"
 xmlns:xlink="http://www.w3.org/1999/xlink"
 width="171px" height="96px">
<path fill-rule="evenodd"  fill="rgb(239, 229, 221)"
 d="M2.000,15.000 L58.000,15.000 C59.105,15.000 60.000,15.895 60.000,17.000 L60.000,80.000 C60.000,88.836 52.836,96.000 44.000,96.000 L16.000,96.000 C7.163,96.000 -0.000,88.836 -0.000,80.000 L-0.000,17.000 C-0.000,15.895 0.895,15.000 2.000,15.000 Z"/>
<path fill-rule="evenodd"  fill="rgb(211, 211, 211)"
 d="M2.000,15.000 L58.000,15.000 C59.105,15.000 60.000,15.895 60.000,17.000 L60.000,19.000 L-0.000,19.000 L-0.000,17.000 C-0.000,15.895 0.895,15.000 2.000,15.000 Z"/>
<path fill-rule="evenodd"  fill="rgb(138, 138, 138)"
 d="M17.000,23.000 C19.209,23.000 21.000,24.791 21.000,27.000 C21.000,29.209 19.209,31.000 17.000,31.000 C14.791,31.000 13.000,29.209 13.000,27.000 C13.000,24.791 14.791,23.000 17.000,23.000 Z"/>
<path fill-rule="evenodd"  fill="rgb(138, 138, 138)"
 d="M43.000,23.000 C45.209,23.000 47.000,24.791 47.000,27.000 C47.000,29.209 45.209,31.000 43.000,31.000 C40.791,31.000 39.000,29.209 39.000,27.000 C39.000,24.791 40.791,23.000 43.000,23.000 Z"/>
<path fill-rule="evenodd"  fill="rgb(158, 251, 95)"
 d="M26.000,3.000 L34.000,3.000 C36.209,3.000 38.000,4.791 38.000,7.000 L38.000,15.000 L22.000,15.000 L22.000,7.000 C22.000,4.791 23.791,3.000 26.000,3.000 Z"/>
<path fill-rule="evenodd"  fill="rgb(252, 216, 0)"
 d="M40.000,5.000 L48.000,5.000 C50.209,5.000 52.000,6.791 52.000,9.000 L52.000,15.000 L36.000,15.000 L36.000,9.000 C36.000,6.791 37.791,5.000 40.000,5.000 Z"/>
<path fill-rule="evenodd"  fill="rgb(252, 216, 0)"
 d="M12.000,-0.000 L20.000,-0.000 C22.209,-0.000 24.000,1.791 24.000,4.000 L24.000,15.000 L8.000,15.000 L8.000,4.000 C8.000,1.791 9.791,-0.000 12.000,-0.000 Z"/>
<path fill-rule="evenodd"  fill="rgb(252, 216, 0)"
 d="M89.000,-0.000 C102.807,-0.000 114.000,11.193 114.000,25.000 C114.000,38.807 102.807,50.000 89.000,50.000 C75.193,50.000 64.000,38.807 64.000,25.000 C64.000,11.193 75.193,-0.000 89.000,-0.000 Z"/>
<path fill-rule="evenodd"  fill="rgb(158, 251, 95)"
 d="M89.000,-0.000 C100.046,-0.000 109.000,11.193 109.000,25.000 C109.000,38.807 100.046,50.000 89.000,50.000 C77.954,50.000 69.000,38.807 69.000,25.000 C69.000,11.193 77.954,-0.000 89.000,-0.000 Z"/>
<path fill-rule="evenodd"  fill="rgb(252, 216, 0)"
 d="M89.000,-0.000 C94.523,-0.000 99.000,11.193 99.000,25.000 C99.000,38.807 94.523,50.000 89.000,50.000 C83.477,50.000 79.000,38.807 79.000,25.000 C79.000,11.193 83.477,-0.000 89.000,-0.000 Z"/>
<path fill-rule="evenodd"  fill="rgb(158, 251, 95)"
 d="M124.000,5.000 L140.000,5.000 C142.209,5.000 144.000,6.791 144.000,9.000 L144.000,25.000 L120.000,25.000 L120.000,9.000 C120.000,6.791 121.791,5.000 124.000,5.000 Z"/>
<path fill-rule="evenodd"  fill="rgb(255, 255, 255)"
 d="M56.000,25.000 L152.000,25.000 C153.104,25.000 154.000,25.895 154.000,27.000 L154.000,80.000 C154.000,88.836 146.837,96.000 138.000,96.000 L70.000,96.000 C61.163,96.000 54.000,88.836 54.000,80.000 L54.000,27.000 C54.000,25.895 54.895,25.000 56.000,25.000 Z"/>
<path fill-rule="evenodd"  fill="rgb(211, 211, 211)"
 d="M56.000,25.000 L152.000,25.000 C153.104,25.000 154.000,25.895 154.000,27.000 L154.000,29.000 L54.000,29.000 L54.000,27.000 C54.000,25.895 54.895,25.000 56.000,25.000 Z"/>
<path fill-rule="evenodd"  fill="rgb(138, 138, 138)"
 d="M76.000,39.000 C78.209,39.000 80.000,40.791 80.000,43.000 C80.000,45.209 78.209,47.000 76.000,47.000 C73.791,47.000 72.000,45.209 72.000,43.000 C72.000,40.791 73.791,39.000 76.000,39.000 Z"/>
<path fill-rule="evenodd"  fill="rgb(138, 138, 138)"
 d="M132.000,39.000 C134.209,39.000 136.000,40.791 136.000,43.000 C136.000,45.209 134.209,47.000 132.000,47.000 C129.791,47.000 128.000,45.209 128.000,43.000 C128.000,40.791 129.791,39.000 132.000,39.000 Z"/>
<path fill-rule="evenodd"  fill-opacity="0.102" fill="rgb(45, 97, 11)"
 d="M151.000,6.000 C162.046,6.000 171.000,14.954 171.000,26.000 C171.000,37.045 162.046,46.000 151.000,46.000 C139.954,46.000 131.000,37.045 131.000,26.000 C131.000,14.954 139.954,6.000 151.000,6.000 Z"/>
<path fill-rule="evenodd"  fill-opacity="0.102" fill="rgb(45, 97, 11)"
 d="M151.000,13.000 C158.180,13.000 164.000,18.820 164.000,26.000 C164.000,33.180 158.180,39.000 151.000,39.000 C143.820,39.000 138.000,33.180 138.000,26.000 C138.000,18.820 143.820,13.000 151.000,13.000 Z"/>
<path fill-rule="evenodd"  fill-opacity="0.102" fill="rgb(45, 97, 11)"
 d="M151.000,20.000 C154.314,20.000 157.000,22.686 157.000,26.000 C157.000,29.314 154.314,32.000 151.000,32.000 C147.686,32.000 145.000,29.314 145.000,26.000 C145.000,22.686 147.686,20.000 151.000,20.000 Z"/>
</svg>